<svg xmlns="http://www.w3.org/2000/svg" id="Layer_1" viewBox="0 0 190 220" width="190" height="220"><defs><style>.cls-1{fill:#fff}</style></defs><path d="M95 .41l94.91 54.79v109.6L95 219.59.09 164.8V55.2L95 .41z"/><path d="M39.92 150.49a1.8 1.8 0 1 1 0-3.59h9v-11.34h-9a1.7 1.7 0 0 1-1.8-1.8V98.3a1.7 1.7 0 0 1 1.8-1.8H51.8c.9-25.56 20-39.6 43.2-39.6s42.29 14 43.2 39.6h11.87a1.71 1.71 0 0 1 1.81 1.8v35.46a1.71 1.71 0 0 1-1.81 1.8h-9v11.34h9a1.8 1.8 0 1 1 0 3.59zm1.8-50.39V132h106.56v-31.9zm10.8 35.46v11.34H64v-11.34zM55.4 96.5h79.2c-.9-23.22-18.54-36-39.6-36s-38.7 12.78-39.6 36zm12.24 39.06v11.34h18v-11.34zm21.6 0v11.34h11.52v-11.34zM138 123.32H94.1a1.8 1.8 0 1 1 0-3.6H138a1.8 1.8 0 0 1 0 3.6zm-33.66 12.24v11.34h18v-11.34zm21.6 0v11.34h11.51v-11.34z" class="cls-1"/></svg>