<svg xmlns="http://www.w3.org/2000/svg" id="Layer_1" viewBox="0 0 190 220" width="190" height="220"><defs><style>.cls-1{fill:#fff}</style></defs><path d="M95 .41l94.91 54.79v109.6L95 219.59.09 164.8V55.2L95 .41z"/><path d="M41.36 154.45l-4.14-5.94a1.89 1.89 0 0 1 .18-2.16l14.94-17.63H45a1.7 1.7 0 0 1-1.8-1.8V114a1.7 1.7 0 0 1 1.8-1.8h10.4a50.28 50.28 0 0 1-2-13.68 42.57 42.57 0 0 1 85.14 0 44.17 44.17 0 0 1-2 13.68H147a1.69 1.69 0 0 1 1.79 1.8v13a1.69 1.69 0 0 1-1.79 1.8h-9.18l14.76 17.63a1.91 1.91 0 0 1 0 2.16l-4.15 5.94a1.9 1.9 0 0 1-2.34.54l-8.63-4.5H52.34L43.7 155a2 2 0 0 1-2.34-.55zm27.36-25.73H56.84L41 147.44l2.52 3.56 30.42-16zm-22-13v9.36h98.46v-9.36zm12.42-3.6h73.66a43.52 43.52 0 0 0 2.2-13.64 39 39 0 0 0-77.94 0c-.06 4.68.32 9.52 2.12 13.68zm17.32 25.78l-17.1 9h24.48zm-3.06-9.18l15.12 18.18h13l15.12-18.18zm40.14 9.18l-7.38 9h24.48zm19.62-9.18h-11.88l-5.4 6.3 30.6 16 2.51-3.42z" class="cls-1"/></svg>