<svg xmlns="http://www.w3.org/2000/svg" id="Layer_1" viewBox="0 0 190 220" width="190" height="220"><defs><style>.cls-1{fill:#fff}</style></defs><path d="M95 1.41l94.91 54.79v109.6L95 220.59.09 165.8V56.2L95 1.41z"/><path d="M43 151.49a1.7 1.7 0 0 1-1.8-1.8v-21.77H17.42a1.8 1.8 0 1 1 0-3.6h13.5v-11.7a1.7 1.7 0 0 1 1.8-1.8h7a57.07 57.07 0 0 1 55.1-43.74c.18-.18.36-.18.72 0a56.86 56.86 0 0 1 54.72 43.74h7a1.69 1.69 0 0 1 1.79 1.8v11.7h13.5a1.8 1.8 0 1 1 0 3.6h-23.74v21.77a1.69 1.69 0 0 1-1.79 1.8zm-8.46-37.07v9.9h121v-9.9zM91.4 70.86c-23 1.44-42.3 18.18-47.88 40h19.26zm-46.62 57.06v20H93.2v-20zM93.2 74.46l-25.92 36.36H93.2zm3.6-3.78v40.14h49.67A53.49 53.49 0 0 0 96.8 70.68zm0 57.24v20h8.1v-20zm11.7 0v20h36.71v-20z" class="cls-1"/></svg>