<svg xmlns="http://www.w3.org/2000/svg"><symbol id="icon1" viewBox="0 0 190 220"><path d="M68.72 128.72H56.84L41 147.44l2.52 3.59 30.42-16.02-5.22-6.29zm-9.36 18.18h24.48l-7.38-9-17.1 9zm73.44-34.74a43.52 43.52 0 0 0 2.2-13.68 39 39 0 0 0-77.94 0c0 4.68.36 9.54 2.16 13.68zm-86.04 3.6h98.46v9.36H46.76zm59.4 31.14h24.47l-17.09-9-7.38 9z"/><path d="M95 .4L.09 55.2v109.6L95 219.6l94.91-54.8V55.2zm57.6 148.11l-4.15 5.94a1.9 1.9 0 0 1-2.34.54l-8.63-4.5H52.34L43.7 155a2 2 0 0 1-2.34-.54l-4.14-5.94a1.89 1.89 0 0 1 .18-2.16l14.94-17.63H45a1.7 1.7 0 0 1-1.8-1.8V114a1.7 1.7 0 0 1 1.8-1.8h10.4a50.28 50.28 0 0 1-2-13.68 42.57 42.57 0 0 1 85.14 0 44.17 44.17 0 0 1-2 13.68H147a1.69 1.69 0 0 1 1.79 1.8v13a1.69 1.69 0 0 1-1.79 1.8h-9.18l14.76 17.63a1.91 1.91 0 0 1 .02 2.08z"/><path d="M121.28 128.72l-5.4 6.29 30.59 16.02 2.53-3.41-15.84-18.9h-11.88zm-47.88 0l15.12 18.18h12.96l15.12-18.18H73.4z"/></symbol><symbol id="icon2" viewBox="0 0 190 220"><path d="M89.24 135.56h11.52v11.34H89.24zm-36.72 0h11.52v11.34H52.52zM95 60.5c-21.06 0-38.7 12.78-39.6 36h79.2c-.9-23.22-18.54-36-39.6-36zm9.36 75.06h18v11.34h-18zm-36.72 0h18v11.34h-18zM41.72 132h106.56v-31.9H41.72zm52.38-12.28H138a1.8 1.8 0 0 1 0 3.6H94.1a1.8 1.8 0 1 1 0-3.6zm31.86 15.84h11.52v11.34h-11.52z"/><path d="M95 .4L.09 55.2v109.6L95 219.6l94.91-54.8V55.2zm56.88 133.36a1.71 1.71 0 0 1-1.81 1.8h-9v11.34h9a1.8 1.8 0 1 1 0 3.59H39.92a1.8 1.8 0 1 1 0-3.59h9v-11.34h-9a1.7 1.7 0 0 1-1.8-1.8V98.3a1.7 1.7 0 0 1 1.8-1.8H51.8c.9-25.56 20-39.6 43.2-39.6s42.29 14 43.2 39.6h11.87a1.71 1.71 0 0 1 1.81 1.8z"/></symbol><symbol id="icon3" viewBox="0 0 190 220"><path d="M44.78 127.92H93.2v19.98H44.78zM96.8 70.68v40.14h49.67A53.49 53.49 0 0 0 96.8 70.68zm-3.6 40.14V74.46l-25.92 36.36H93.2zm-1.8-39.96c-23 1.44-42.3 18.18-47.88 40h19.26zm-56.88 43.56h120.96v9.9H34.52z"/><path d="M95 1.4L.09 56.2v109.6L95 220.6l94.91-54.8V56.2zm77.57 126.52h-23.76v21.77a1.69 1.69 0 0 1-1.79 1.8H43a1.7 1.7 0 0 1-1.8-1.8v-21.77H17.42a1.8 1.8 0 1 1 0-3.6h13.5v-11.7a1.7 1.7 0 0 1 1.8-1.8h7a57.07 57.07 0 0 1 55.1-43.74c.18-.18.36-.18.72 0a56.86 56.86 0 0 1 54.72 43.74h7a1.69 1.69 0 0 1 1.79 1.8v11.7h13.5a1.8 1.8 0 1 1 0 3.6z"/><path d="M96.8 127.92h8.1v19.98h-8.1zm11.7 0h36.72v19.98H108.5z"/></symbol></svg>