<svg xmlns="http://www.w3.org/2000/svg"><symbol id="icon2" viewBox="0 0 190 220"><defs><style>.cls-1{fill:#fff}</style></defs><path d="M95 .41l94.91 54.79v109.6L95 219.59.09 164.8V55.2L95 .41z"/><path d="M39.92 150.49a1.8 1.8 0 1 1 0-3.59h9v-11.34h-9a1.7 1.7 0 0 1-1.8-1.8V98.3a1.7 1.7 0 0 1 1.8-1.8H51.8c.9-25.56 20-39.6 43.2-39.6s42.29 14 43.2 39.6h11.87a1.71 1.71 0 0 1 1.81 1.8v35.46a1.71 1.71 0 0 1-1.81 1.8h-9v11.34h9a1.8 1.8 0 1 1 0 3.59zm1.8-50.39V132h106.56v-31.9zm10.8 35.46v11.34H64v-11.34zM55.4 96.5h79.2c-.9-23.22-18.54-36-39.6-36s-38.7 12.78-39.6 36zm12.24 39.06v11.34h18v-11.34zm21.6 0v11.34h11.52v-11.34zM138 123.32H94.1a1.8 1.8 0 1 1 0-3.6H138a1.8 1.8 0 0 1 0 3.6zm-33.66 12.24v11.34h18v-11.34zm21.6 0v11.34h11.51v-11.34z" class="cls-1"/></symbol><symbol id="icon1" viewBox="0 0 190 220"><defs><style>.cls-1{fill:#fff}</style></defs><path d="M95 .41l94.91 54.79v109.6L95 219.59.09 164.8V55.2L95 .41z"/><path d="M41.36 154.45l-4.14-5.94a1.89 1.89 0 0 1 .18-2.16l14.94-17.63H45a1.7 1.7 0 0 1-1.8-1.8V114a1.7 1.7 0 0 1 1.8-1.8h10.4a50.28 50.28 0 0 1-2-13.68 42.57 42.57 0 0 1 85.14 0 44.17 44.17 0 0 1-2 13.68H147a1.69 1.69 0 0 1 1.79 1.8v13a1.69 1.69 0 0 1-1.79 1.8h-9.18l14.76 17.63a1.91 1.91 0 0 1 0 2.16l-4.15 5.94a1.9 1.9 0 0 1-2.34.54l-8.63-4.5H52.34L43.7 155a2 2 0 0 1-2.34-.55zm27.36-25.73H56.84L41 147.44l2.52 3.56 30.42-16zm-22-13v9.36h98.46v-9.36zm12.42-3.6h73.66a43.52 43.52 0 0 0 2.2-13.64 39 39 0 0 0-77.94 0c-.06 4.68.32 9.52 2.12 13.68zm17.32 25.78l-17.1 9h24.48zm-3.06-9.18l15.12 18.18h13l15.12-18.18zm40.14 9.18l-7.38 9h24.48zm19.62-9.18h-11.88l-5.4 6.3 30.6 16 2.51-3.42z" class="cls-1"/></symbol><symbol id="icon3" viewBox="0 0 190 220"><defs><style>.cls-1{fill:#fff}</style></defs><path d="M95 1.41l94.91 54.79v109.6L95 220.59.09 165.8V56.2L95 1.41z"/><path d="M43 151.49a1.7 1.7 0 0 1-1.8-1.8v-21.77H17.42a1.8 1.8 0 1 1 0-3.6h13.5v-11.7a1.7 1.7 0 0 1 1.8-1.8h7a57.07 57.07 0 0 1 55.1-43.74c.18-.18.36-.18.72 0a56.86 56.86 0 0 1 54.72 43.74h7a1.69 1.69 0 0 1 1.79 1.8v11.7h13.5a1.8 1.8 0 1 1 0 3.6h-23.74v21.77a1.69 1.69 0 0 1-1.79 1.8zm-8.46-37.07v9.9h121v-9.9zM91.4 70.86c-23 1.44-42.3 18.18-47.88 40h19.26zm-46.62 57.06v20H93.2v-20zM93.2 74.46l-25.92 36.36H93.2zm3.6-3.78v40.14h49.67A53.49 53.49 0 0 0 96.8 70.68zm0 57.24v20h8.1v-20zm11.7 0v20h36.71v-20z" class="cls-1"/></symbol></svg>